<svg width="74" height="74" viewBox="0 0 74 74" fill="none" xmlns="http://www.w3.org/2000/svg">
<g filter="url(#filter0_d)">
<circle cx="37" cy="33" r="17" fill="white"/>
<circle cx="37" cy="33" r="16.5" stroke="#7BC4ED"/>
</g>
<path d="M31.7929 32.2929C31.4024 32.6834 31.4024 33.3166 31.7929 33.7071L38.1569 40.0711C38.5474 40.4616 39.1805 40.4616 39.5711 40.0711C39.9616 39.6805 39.9616 39.0474 39.5711 38.6569L33.9142 33L39.5711 27.3431C39.9616 26.9526 39.9616 26.3195 39.5711 25.9289C39.1805 25.5384 38.5474 25.5384 38.1569 25.9289L31.7929 32.2929ZM34 32L32.5 32L32.5 34L34 34L34 32Z" fill="#676767"/>
<defs>
<filter id="filter0_d" x="0" y="0" width="74" height="74" filterUnits="userSpaceOnUse" color-interpolation-filters="sRGB">
<feFlood flood-opacity="0" result="BackgroundImageFix"/>
<feColorMatrix in="SourceAlpha" type="matrix" values="0 0 0 0 0 0 0 0 0 0 0 0 0 0 0 0 0 0 127 0" result="hardAlpha"/>
<feOffset dy="4"/>
<feGaussianBlur stdDeviation="10"/>
<feComposite in2="hardAlpha" operator="out"/>
<feColorMatrix type="matrix" values="0 0 0 0 0.741667 0 0 0 0 0.741667 0 0 0 0 0.741667 0 0 0 0.1 0"/>
<feBlend mode="normal" in2="BackgroundImageFix" result="effect1_dropShadow"/>
<feBlend mode="normal" in="SourceGraphic" in2="effect1_dropShadow" result="shape"/>
</filter>
</defs>
</svg>
