<svg width="20" height="20" viewBox="0 0 20 20" fill="none" xmlns="http://www.w3.org/2000/svg">
<path d="M19.7884 7.3684H9.52381V12.1052H14.709C13.9683 14.0526 12.3281 15.2631 10.1587 15.2631C7.30159 15.2631 4.76191 12.7894 4.76191 10C4.76191 7.21056 7.30159 4.73685 10.1587 4.73685C11.5344 4.73685 12.6984 5.15793 13.545 6.00001L13.9153 6.36841L17.4603 2.84211L17.037 2.47371C15.3968 0.842087 13.0159 0 10.1587 0C4.44444 0 0 4.36839 0 10C0 15.6316 4.44444 20 10.1587 20C15.3968 20 19.1535 16.9474 19.8413 12C19.9471 11.3684 20 10.6842 20 9.99994C20 9.21046 19.9471 8.42099 19.8413 7.78941L19.7884 7.3684ZM18.836 11.8421C18.1482 16.3158 14.9206 18.9474 10.1587 18.9474C5.07937 18.9474 1.05822 15 1.05822 10C1.05822 4.99997 5.07937 1.05259 10.1587 1.05259C12.5397 1.05259 14.4444 1.68417 15.9259 2.84205L13.8624 4.89469C12.91 4.10521 11.6402 3.68414 10.1587 3.68414C6.66667 3.68414 3.70368 6.57886 3.70368 9.99994C3.70368 13.421 6.66667 16.3157 10.1058 16.3157C12.9629 16.3157 15.238 14.4736 15.873 11.6842L16.0317 11.0526H10.582V8.42105H18.8889C18.9418 8.89473 18.9947 9.4737 18.9947 10C18.9947 10.6316 18.9418 11.2632 18.836 11.8421Z" fill="#696969"/>
</svg>
