<svg width="23" height="20" viewBox="0 0 23 20" fill="none" xmlns="http://www.w3.org/2000/svg">
<path d="M11.5429 19C11.5429 19 1 13.2727 1 6.31819C1.00021 5.08901 1.43927 3.89784 2.24252 2.94719C3.04577 1.99655 4.16364 1.34512 5.40606 1.10365C6.64848 0.862185 7.93876 1.04559 9.05754 1.62268C10.1763 2.19977 11.0545 3.13492 11.5429 4.26915L11.5428 4.26916C12.0312 3.13493 12.9094 2.19977 14.0282 1.62268C15.1469 1.04559 16.4372 0.862186 17.6797 1.10365C18.9221 1.34512 20.0399 1.99655 20.8432 2.94719C21.6464 3.89784 22.0855 5.08901 22.0857 6.31819C22.0857 13.2727 11.5429 19 11.5429 19Z" stroke="url(#paint0_linear)" stroke-linecap="round" stroke-linejoin="round"/>
<defs>
<linearGradient id="paint0_linear" x1="1" y1="-8.75" x2="4.25686" y2="38.0151" gradientUnits="userSpaceOnUse">
<stop stop-color="#7BC1E8"/>
<stop offset="1" stop-color="#276F97"/>
</linearGradient>
</defs>
</svg>
