<svg width="25" height="22" viewBox="0 0 25 22" fill="none" xmlns="http://www.w3.org/2000/svg">
<path d="M12.5 21C12.5 21 1 14.6364 1 6.9091C1.00023 5.54334 1.47915 4.21982 2.35533 3.16355C3.2315 2.10728 4.45085 1.38347 5.80607 1.11517C7.16128 0.846872 8.56871 1.05065 9.78905 1.69186C11.0094 2.33308 11.9673 3.37214 12.5 4.63239L12.5 4.6324C13.0327 3.37215 13.9906 2.33308 15.2109 1.69187C16.4313 1.05065 17.8387 0.846873 19.1939 1.11517C20.5491 1.38347 21.7685 2.10728 22.6447 3.16355C23.5208 4.21982 23.9998 5.54334 24 6.9091C24 14.6364 12.5 21 12.5 21Z" stroke="#5DA6CF" stroke-width="2" stroke-linecap="round" stroke-linejoin="round"/>
</svg>
