<svg width="20" height="22" viewBox="0 0 20 22" fill="none" xmlns="http://www.w3.org/2000/svg">
<path d="M4.09091 14.0769C5.79797 14.0769 7.18182 12.6993 7.18182 11C7.18182 9.30067 5.79797 7.92308 4.09091 7.92308C2.38385 7.92308 1 9.30067 1 11C1 12.6993 2.38385 14.0769 4.09091 14.0769Z" stroke="#C4C4C4" stroke-width="2" stroke-linecap="round" stroke-linejoin="round"/>
<path d="M14.9112 21C16.6183 21 18.0021 19.6224 18.0021 17.9231C18.0021 16.2238 16.6183 14.8462 14.9112 14.8462C13.2042 14.8462 11.8203 16.2238 11.8203 17.9231C11.8203 19.6224 13.2042 21 14.9112 21Z" stroke="#C4C4C4" stroke-width="2" stroke-linecap="round" stroke-linejoin="round"/>
<path d="M14.9112 7.15384C16.6183 7.15384 18.0021 5.77625 18.0021 4.07692C18.0021 2.37758 16.6183 0.999992 14.9112 0.999992C13.2042 0.999992 11.8203 2.37758 11.8203 4.07692C11.8203 5.77625 13.2042 7.15384 14.9112 7.15384Z" stroke="#C4C4C4" stroke-width="2" stroke-linecap="round" stroke-linejoin="round"/>
<path d="M12.3102 5.74081L6.69141 9.33656" stroke="#C4C4C4" stroke-width="2" stroke-linecap="round" stroke-linejoin="round"/>
<path d="M6.69141 12.6639L12.3102 16.2596" stroke="#C4C4C4" stroke-width="2" stroke-linecap="round" stroke-linejoin="round"/>
</svg>
