<svg width="8" height="10" viewBox="0 0 8 10" fill="none" xmlns="http://www.w3.org/2000/svg">
<path d="M6.72822 10H0.961174C0.43146 10 0 9.57959 0 9.0625V4.6875C0 4.17042 0.43146 3.75 0.961174 3.75H6.72822C7.25793 3.75 7.68939 4.17042 7.68939 4.6875V9.0625C7.68939 9.57959 7.25793 10 6.72822 10ZM0.961174 4.375C0.784745 4.375 0.640783 4.515 0.640783 4.6875V9.0625C0.640783 9.235 0.784745 9.375 0.961174 9.375H6.72822C6.90465 9.375 7.04861 9.235 7.04861 9.0625V4.6875C7.04861 4.515 6.90465 4.375 6.72822 4.375H0.961174Z" fill="#D2320F"/>
<path d="M6.08712 4.375C5.91026 4.375 5.76673 4.235 5.76673 4.0625V2.5C5.76673 1.46625 4.90424 0.625 3.84438 0.625C2.78453 0.625 1.92203 1.46625 1.92203 2.5V4.0625C1.92203 4.235 1.7785 4.375 1.60164 4.375C1.42479 4.375 1.28125 4.235 1.28125 4.0625V2.5C1.28125 1.12125 2.43081 0 3.84438 0C5.25795 0 6.40751 1.12125 6.40751 2.5V4.0625C6.40751 4.235 6.26398 4.375 6.08712 4.375Z" fill="#D2320F"/>
<path d="M3.84656 7.08334C3.37538 7.08334 2.99219 6.70959 2.99219 6.25C2.99219 5.79042 3.37538 5.41667 3.84656 5.41667C4.31775 5.41667 4.70094 5.79042 4.70094 6.25C4.70094 6.70959 4.31775 7.08334 3.84656 7.08334ZM3.84656 6.04167C3.72909 6.04167 3.63297 6.135 3.63297 6.25C3.63297 6.365 3.72909 6.45834 3.84656 6.45834C3.96404 6.45834 4.06016 6.365 4.06016 6.25C4.06016 6.135 3.96404 6.04167 3.84656 6.04167Z" fill="#D2320F"/>
<path d="M3.84383 8.33333C3.66697 8.33333 3.52344 8.19333 3.52344 8.02083V6.875C3.52344 6.7025 3.66697 6.5625 3.84383 6.5625C4.02068 6.5625 4.16422 6.7025 4.16422 6.875V8.02083C4.16422 8.19333 4.02068 8.33333 3.84383 8.33333Z" fill="#D2320F"/>
</svg>
