<svg width="76" height="76" viewBox="0 0 76 76" fill="none" xmlns="http://www.w3.org/2000/svg">
<path d="M42.4977 33.5L33.499 42.5" stroke="#276F97" stroke-width="2" stroke-linecap="round" stroke-linejoin="round"/>
<path d="M42.4977 42.5L33.499 33.5" stroke="#276F97" stroke-width="2" stroke-linecap="round" stroke-linejoin="round"/>
<path d="M69.1633 40.7254C69.2108 40.2347 69.3313 39.7921 69.525 39.3974C69.7223 39.0072 69.9826 38.707 70.3057 38.4968C70.6329 38.2869 71.0147 38.2113 71.451 38.2699L71.4863 38.2856L71.344 39.7575C71.0845 39.7324 70.853 39.8205 70.6493 40.0219C70.4457 40.2232 70.3263 40.5063 70.291 40.8713C70.2537 41.2565 70.3129 41.5549 70.4684 41.7664C70.628 41.9782 70.8395 42.0969 71.1031 42.1224C71.6991 42.1801 72.0329 41.8378 72.1047 41.0958L72.2047 40.0618L73.2689 40.1647L73.1689 41.1987C73.1352 41.5474 73.1817 41.8077 73.3083 41.9796C73.4349 42.1515 73.63 42.2502 73.8935 42.2756C74.1287 42.2984 74.3354 42.2345 74.5136 42.0839C74.6959 41.9337 74.8047 41.6762 74.84 41.3112C74.8706 40.9949 74.815 40.7235 74.6732 40.497C74.5351 40.2749 74.3444 40.1521 74.1011 40.1285L74.2434 38.6566L74.2811 38.6479C74.6678 38.669 74.9966 38.8031 75.2673 39.0503C75.5377 39.3015 75.7351 39.6297 75.8596 40.0346C75.9878 40.444 76.0282 40.8941 75.9808 41.3847C75.9024 42.1957 75.6744 42.8183 75.2968 43.2525C74.9234 43.687 74.4346 43.8751 73.8305 43.8167C73.5264 43.7873 73.2593 43.6714 73.0292 43.469C72.7992 43.2667 72.6285 43.0005 72.5172 42.6705C72.1766 43.3989 71.6314 43.7268 70.8813 43.6542C70.265 43.5946 69.8048 43.2964 69.5007 42.7594C69.1966 42.2225 69.0842 41.5445 69.1633 40.7254Z" fill="#276F97"/>
<path d="M68.2118 46.2842C68.4168 45.6441 68.7414 45.1984 69.1855 44.9471C69.6295 44.6958 70.1405 44.6628 70.7185 44.848C71.312 45.0382 71.716 45.4328 71.9304 46.032C72.1435 46.635 72.1054 47.3885 71.8158 48.2925L71.5082 49.2527L72.0377 49.4224C72.3713 49.5293 72.6693 49.5135 72.9318 49.3752C73.193 49.2407 73.3845 48.9834 73.5063 48.6032C73.5759 48.3859 73.6102 48.1852 73.6094 48.0009C73.6124 47.8179 73.5865 47.645 73.5318 47.482L72.7233 47.0817L73.07 45.9993L74.6273 46.4855C74.7347 46.8578 74.7857 47.2528 74.7803 47.6703C74.7737 48.0916 74.6958 48.5351 74.5466 49.0007C74.2906 49.7999 73.9012 50.3681 73.3782 50.7053C72.8541 51.0464 72.2448 51.1058 71.5505 50.8833L68.775 49.9939C68.6897 49.9666 68.6063 49.9399 68.5248 49.9138C68.446 49.8928 68.3646 49.8731 68.2806 49.8548L67.9941 50.4688L67.0981 50.1817L67.7114 48.2671C67.8596 48.2718 68.0033 48.2772 68.1424 48.2833C68.2804 48.2933 68.4159 48.311 68.5488 48.3365C68.3522 48.0425 68.2163 47.7188 68.1414 47.3654C68.0703 47.0132 68.0937 46.6528 68.2118 46.2842ZM69.2402 46.9795C69.1445 47.2783 69.1241 47.5755 69.1791 47.8711C69.2367 48.1719 69.3498 48.4199 69.5182 48.6151L70.5714 48.9525L70.8846 47.9749C71.025 47.5365 71.0285 47.1718 70.895 46.8809C70.7641 46.5951 70.5629 46.4087 70.2913 46.3217C69.7832 46.1589 69.4328 46.3782 69.2402 46.9795Z" fill="#276F97"/>
<path d="M66.8361 51.0946L67.6391 51.5851L67.286 52.515L71.0038 54.7861L71.6697 54.0472L72.478 54.5409L70.7041 57.4457L69.8959 56.952L70.2044 56.0951L68.9217 55.3115L68.5968 55.8434L69.3872 57.6795C69.5726 58.0793 69.6784 58.4375 69.7046 58.7542C69.7307 59.0709 69.6536 59.377 69.4731 59.6725C69.3627 59.8533 69.2467 59.9925 69.1251 60.09C69.0013 60.1911 68.8563 60.2839 68.6901 60.3685L67.9134 59.6005C68.0134 59.4993 68.0747 59.4341 68.0972 59.4049C68.1212 59.3814 68.1512 59.34 68.1873 59.2809C68.2637 59.1558 68.2946 59.0075 68.2799 58.8362C68.2665 58.6705 68.2238 58.506 68.1517 58.3426L67.4802 56.7223L64.5211 56.9841L63.9353 57.6502L63.1323 57.1597L64.2215 55.3761L67.3799 55.2218L67.7589 54.6012L66.4866 53.824L65.8652 54.4899L65.0622 53.9994L66.8361 51.0946Z" fill="#276F97"/>
<path d="M61.0195 55.8391L61.6892 56.5089L61.188 57.2694L66.0614 62.1435L66.878 61.5861L67.5476 62.2558L65.8843 63.9194L65.2621 63.4355C65.3198 63.7869 65.301 64.1196 65.206 64.4336C65.1109 64.7534 64.9223 65.0544 64.64 65.3367C64.2598 65.717 63.8307 65.9388 63.3525 66.0022C62.8744 66.0655 62.379 65.982 61.8663 65.7515C61.3508 65.524 60.8438 65.161 60.3456 64.6627L60.2548 64.5719C59.7998 64.1168 59.4728 63.6458 59.2741 63.1589C59.0783 62.675 59.0207 62.2025 59.1013 61.7416C59.1819 61.2807 59.4109 60.8616 59.7882 60.4842C60.3124 59.9599 60.9043 59.7367 61.5639 59.8145L60.1036 58.354L59.3087 58.8898L58.639 58.22L61.0195 55.8391ZM60.9547 60.9941C60.5976 61.3513 60.4651 61.746 60.5573 62.1781C60.6494 62.6159 60.9115 63.0509 61.3436 63.483L61.4343 63.5737C61.9153 64.0548 62.3934 64.3573 62.8687 64.4812C63.3439 64.6108 63.7601 64.497 64.1173 64.1398C64.3189 63.9382 64.4485 63.7163 64.5061 63.4744C64.5666 63.2353 64.5594 62.989 64.4845 62.7355L62.3416 60.5922C61.826 60.4511 61.3637 60.585 60.9547 60.9941Z" fill="#276F97"/>
<path d="M52.0253 66.1753L52.4859 66.996L51.7764 67.6045L53.9087 71.4039L54.8455 71.0882L55.3091 71.9142L53.1193 73.1435L50.4337 68.3582L49.5448 68.647L49.0843 67.8264L52.0253 66.1753ZM56.6491 68.6462C55.9102 69.0609 55.2353 69.2109 54.6244 69.0961C54.0134 68.9812 53.5484 68.6396 53.2294 68.0712C52.9025 67.4886 52.8469 66.8984 53.0626 66.3008C53.2768 65.7087 53.7516 65.2062 54.4869 64.7935L57.9074 62.8732L58.368 63.6939L57.6052 64.3323L59.7375 68.1317L60.6797 67.813L61.1432 68.639L58.101 70.3469L57.6374 69.5209L58.3949 68.8855L57.8745 67.9583L56.6491 68.6462ZM56.2925 65.1393L55.067 65.8273C54.7225 66.0207 54.5136 66.2477 54.4403 66.5084C54.3671 66.7691 54.4043 67.0309 54.5518 67.2938C54.6993 67.5567 54.9064 67.7301 55.173 67.814C55.4397 67.8979 55.7453 67.8431 56.0898 67.6497L57.3152 66.9618L56.2925 65.1393Z" fill="#276F97"/>
<path d="M47.3572 68.0686L47.5756 68.9839L46.6732 69.3878L47.673 73.5783L48.8675 73.2932L48.7236 72.3475L49.9122 72.0638L50.4071 74.1382L43.9589 75.6772L43.4639 73.6027L44.6585 73.3176L44.957 74.2264L46.1753 73.9357L45.1755 69.7452L44.194 69.791L43.9756 68.8756L47.3572 68.0686Z" fill="#276F97"/>
<path d="M37.9437 73.8114C37.0965 73.8212 36.4323 73.6292 35.9512 73.2356C35.47 72.8419 35.2256 72.3191 35.2181 71.6673C35.2104 70.9993 35.4444 70.4547 35.9202 70.0336C36.392 69.6167 37.0494 69.4033 37.8925 69.3935L41.8148 69.3481L41.8257 70.2891L40.8503 70.4837L40.9008 74.8405L41.8804 75.0125L41.8914 75.9596L38.4029 76L38.3919 75.0529L39.3612 74.8583L39.3489 73.7951L37.9437 73.8114ZM37.9063 70.579C37.5112 70.5835 37.219 70.6827 37.0298 70.8763C36.8406 71.0741 36.7478 71.3216 36.7512 71.619C36.7547 71.9205 36.8534 72.1719 37.0471 72.3734C37.2409 72.5749 37.5354 72.6733 37.9305 72.6687L39.3356 72.6525L39.3114 70.5627L37.9063 70.579Z" fill="#276F97"/>
<path d="M28.5612 71.29L28.1721 72.4162L25.0998 71.3546L25.4889 70.2283L28.5612 71.29Z" fill="#276F97"/>
<path d="M19.3987 63.0298C19.7887 63.3313 20.099 63.6691 20.3299 64.0432C20.555 64.4181 20.6704 64.7983 20.6762 65.1838C20.6795 65.5725 20.5402 65.936 20.2582 66.2741L20.2261 66.2956L19.0563 65.3912C19.2157 65.1849 19.2645 64.942 19.2026 64.6624C19.1407 64.3828 18.9647 64.1309 18.6747 63.9066C18.3685 63.6699 18.0845 63.5611 17.8227 63.5801C17.5584 63.6023 17.3453 63.7182 17.1834 63.9277C16.8172 64.4015 16.9289 64.8663 17.5187 65.3223L18.3404 65.9577L17.6865 66.8037L16.8647 66.1684C16.5876 65.9541 16.3426 65.8548 16.1297 65.8704C15.9168 65.886 15.7294 65.9986 15.5675 66.2081C15.423 66.3951 15.367 66.6041 15.3994 66.8352C15.4294 67.0695 15.5894 67.2987 15.8795 67.523C16.1309 67.7173 16.3902 67.8148 16.6574 67.8155C16.9189 67.8168 17.1244 67.7208 17.2739 67.5274L18.4437 68.4319L18.4309 68.4684C18.2071 68.7845 17.9186 68.9914 17.5652 69.0889C17.2086 69.1839 16.8257 69.1763 16.4167 69.066C16.002 68.9565 15.5996 68.751 15.2097 68.4495C14.5652 67.9512 14.1597 67.4266 13.9934 66.8758C13.8246 66.3282 13.9258 65.8142 14.297 65.334C14.4838 65.0922 14.7241 64.9279 15.0179 64.8409C15.3117 64.7539 15.6278 64.7512 15.9664 64.8327C15.5314 64.1566 15.5443 63.5204 16.0052 62.9241C16.3839 62.4342 16.8814 62.2035 17.4977 62.232C18.1141 62.2606 18.7477 62.5265 19.3987 63.0298Z" fill="#276F97"/>
<path d="M15.2122 59.2787C15.646 59.7921 15.8518 60.3037 15.8293 60.8134C15.8068 61.3232 15.5638 61.774 15.1003 62.1659C14.6244 62.5683 14.0756 62.7016 13.454 62.5656C12.8298 62.4266 12.2113 61.9946 11.5986 61.2697L10.9478 60.4997L10.5231 60.8587C10.2556 61.0849 10.1109 61.3459 10.089 61.6418C10.0645 61.9346 10.1811 62.2335 10.4388 62.5384C10.586 62.7126 10.738 62.8482 10.8946 62.9452C11.0481 63.0448 11.2085 63.1146 11.3756 63.1546L12.1437 62.6813L12.8773 63.5493L11.6394 64.612C11.2668 64.5056 10.9049 64.3394 10.5539 64.1134C10.2003 63.8843 9.86565 63.5831 9.55009 63.2097C9.00838 62.5688 8.73325 61.9373 8.72469 61.315C8.7135 60.6897 8.98631 60.1416 9.54313 59.6708L11.7688 57.789C11.8373 57.7312 11.9042 57.6746 11.9695 57.6194C12.0291 57.5637 12.0889 57.5051 12.149 57.4436L11.7804 56.8751L12.499 56.2675L13.7967 57.8029C13.7141 57.9261 13.6333 58.045 13.5544 58.1598C13.4727 58.2715 13.3859 58.377 13.2937 58.4762C13.6473 58.4654 13.9937 58.5219 14.3331 58.6457C14.6693 58.7722 14.9623 58.9832 15.2122 59.2787ZM14.0774 59.782C13.875 59.5425 13.6338 59.3676 13.354 59.2574C13.0685 59.1468 12.7983 59.1111 12.5436 59.1505L11.699 59.8645L12.3617 60.6485C12.6588 61.0001 12.9661 61.1964 13.2835 61.2375C13.5951 61.278 13.8598 61.2063 14.0776 61.0222C14.4851 60.6776 14.485 60.2643 14.0774 59.782Z" fill="#276F97"/>
<path d="M11.8898 55.6045L11.0497 56.0283L10.4458 55.2379L6.55611 57.1999L6.83266 58.1554L5.98707 58.5819L4.45458 55.5428L5.30017 55.1163L5.86553 55.8303L7.20755 55.1534L6.92692 54.5969L4.95032 54.3004C4.51295 54.2472 4.15283 54.1483 3.86997 54.0035C3.58712 53.8587 3.36774 53.6317 3.21183 53.3226C3.11645 53.1334 3.05938 52.9614 3.04063 52.8066C3.02004 52.6482 3.01763 52.476 3.03338 52.2902L4.09542 52.0351C4.12869 52.1734 4.15176 52.2599 4.16463 52.2944C4.17203 52.3272 4.19132 52.3745 4.22251 52.4363C4.28854 52.5673 4.3982 52.6717 4.55148 52.7495C4.6993 52.8255 4.8616 52.8759 5.03839 52.9008L6.76901 53.1845L8.10694 50.5318L7.84989 49.6827L8.69002 49.259L9.63097 51.125L8.0967 53.8905L8.42411 54.5398L9.75523 53.8684L9.5172 52.9892L10.3573 52.5654L11.8898 55.6045Z" fill="#276F97"/>
<path d="M10.9319 48.194L10.0091 48.4069L9.63006 47.5787L2.91429 49.1275L2.95396 50.1155L2.03114 50.3283L1.50258 48.0358L2.24269 47.7647C1.91421 47.6273 1.64206 47.435 1.42625 47.188C1.20556 46.9378 1.05036 46.6183 0.96067 46.2292C0.839858 45.7052 0.879324 45.2237 1.07907 44.7846C1.27881 44.3456 1.61227 43.9697 2.07944 43.6571C2.5457 43.3406 3.12216 43.1031 3.80882 42.9447L3.93385 42.9159C4.56097 42.7713 5.13357 42.7437 5.65166 42.8333C6.16578 42.9238 6.59684 43.1254 6.94484 43.4381C7.29283 43.7509 7.52678 44.1672 7.64667 44.6873C7.81325 45.4098 7.68873 46.0301 7.27312 46.5482L9.28547 46.0841L9.25266 45.1259L10.1755 44.9131L10.9319 48.194ZM6.59599 45.4062C6.4825 44.9139 6.21816 44.5924 5.80297 44.4415C5.3829 44.2875 4.87518 44.2792 4.27981 44.4165L4.15478 44.4453C3.49193 44.5982 2.98203 44.8433 2.62507 45.1806C2.26323 45.5149 2.13905 45.9282 2.25254 46.4204C2.31661 46.6983 2.43594 46.9258 2.61055 47.103C2.78118 47.281 2.99381 47.4055 3.24842 47.4764L6.20145 46.7953C6.59444 46.4329 6.72596 45.9699 6.59599 45.4062Z" fill="#276F97"/>
<path d="M6.94087 35.0051L6.00112 34.9579L5.86401 34.0332L1.51311 33.8147L1.28133 34.7759L0.33548 34.7284L0.4614 32.22L5.94122 32.4952L6.17024 31.5889L7.10999 31.6361L6.94087 35.0051ZM2.3874 37.6032C2.42988 36.7569 2.66241 36.1057 3.08499 35.6497C3.50757 35.1936 4.04431 34.982 4.69522 35.0147C5.36239 35.0482 5.89141 35.3154 6.28226 35.8163C6.66925 36.313 6.8416 36.9825 6.79932 37.8247L6.60263 41.7429L5.66288 41.6958L5.52884 40.7101L1.17794 40.4916L0.945848 41.4589L0 41.4114L0.17494 37.9265L1.12079 37.974L1.25514 38.9536L2.31693 39.0069L2.3874 37.6032ZM5.54502 39.169L5.61549 37.7653C5.6353 37.3706 5.5544 37.0728 5.3728 36.872C5.1912 36.6712 4.94987 36.5632 4.64883 36.5481C4.34778 36.533 4.09076 36.6159 3.87775 36.7969C3.66474 36.978 3.54833 37.2658 3.52852 37.6605L3.45805 39.0642L5.54502 39.169Z" fill="#276F97"/>
<path d="M7.78516 30.0926L6.89352 29.792L7.03014 28.8127L2.94831 27.4366L2.55602 28.6005L3.43386 28.9803L3.04353 30.1385L1.02287 29.4572L3.14045 23.1743L5.16111 23.8556L4.76882 25.0195L3.84023 24.7903L3.44014 25.9774L7.52197 27.3535L8.00403 26.4971L8.89567 26.7977L7.78516 30.0926Z" fill="#276F97"/>
<path d="M7.91161 19.0415C8.35587 18.32 8.87291 17.8609 9.46271 17.6644C10.0525 17.4679 10.6249 17.5406 11.1798 17.8824C11.7486 18.2327 12.0839 18.7215 12.1856 19.3487C12.2861 19.9703 12.1152 20.6402 11.6731 21.3582L9.61618 24.6988L8.81499 24.2053L9.17153 23.2766L5.46211 20.9919L4.79341 21.7283L3.98702 21.2317L5.81642 18.2606L6.62281 18.7572L6.26948 19.6807L7.17472 20.2383L7.91161 19.0415ZM10.6638 20.7366C10.8709 20.4001 10.9432 20.1001 10.8806 19.8367C10.8145 19.5711 10.6549 19.3604 10.4017 19.2044C10.145 19.0463 9.87977 18.9954 9.60597 19.0516C9.33216 19.1079 9.09167 19.3042 8.88449 19.6407L8.1476 20.8375L9.92687 21.9333L10.6638 20.7366Z" fill="#276F97"/>
<path d="M14.8779 12.5577L14.1254 11.6338L16.6455 9.58059L17.398 10.5045L14.8779 12.5577Z" fill="#276F97"/>
<path d="M26.6457 9.10576C26.1843 9.27893 25.7338 9.36532 25.2942 9.36493C24.857 9.3593 24.473 9.25757 24.1421 9.05976C23.8098 8.85813 23.574 8.54849 23.4347 8.13083L23.4332 8.09221L24.8176 7.57268C24.9092 7.81679 25.0901 7.98603 25.3605 8.08038C25.6308 8.17474 25.9376 8.15751 26.2808 8.02871C26.6431 7.89274 26.885 7.70841 27.0065 7.4757C27.1266 7.23918 27.1402 6.99695 27.0472 6.74903C26.8368 6.18834 26.3827 6.03895 25.6848 6.30085L24.7123 6.6658L24.3367 5.66457L25.3091 5.29962C25.6371 5.17654 25.8504 5.02034 25.9491 4.83102C26.0477 4.64171 26.0505 4.42309 25.9575 4.17516C25.8745 3.95394 25.7262 3.79638 25.5126 3.70249C25.2976 3.60479 25.0185 3.62034 24.6752 3.74915C24.3778 3.86078 24.1585 4.03009 24.0174 4.25708C23.8788 4.47883 23.8523 4.70412 23.9382 4.93298L22.5538 5.4525L22.5295 5.42246C22.3783 5.06584 22.3542 4.71157 22.4571 4.35966C22.5638 4.00632 22.7716 3.68467 23.0805 3.39471C23.3917 3.0995 23.7781 2.86531 24.2395 2.69213C25.0023 2.4059 25.6616 2.33687 26.2175 2.48505C26.772 2.62941 27.1558 2.98576 27.369 3.55408C27.4764 3.84014 27.4898 4.131 27.4093 4.42664C27.3287 4.72228 27.1648 4.99266 26.9174 5.23779C27.7212 5.22333 28.2555 5.56892 28.5202 6.27455C28.7377 6.85431 28.6723 7.39885 28.3239 7.90815C27.9755 8.41746 27.4161 8.81666 26.6457 9.10576Z" fill="#276F97"/>
<path d="M32.1886 7.46813C31.5233 7.56361 30.9806 7.46657 30.5605 7.17704C30.1403 6.8875 29.8872 6.4423 29.801 5.84145C29.7125 5.22446 29.8907 4.68854 30.3357 4.2337C30.7847 3.77827 31.479 3.48315 32.4184 3.34833L33.4164 3.20512L33.3374 2.65467C33.2876 2.30787 33.1432 2.04668 32.904 1.87111C32.6689 1.69495 32.3537 1.63523 31.9586 1.69194C31.7328 1.72434 31.5373 1.78121 31.372 1.86255C31.2061 1.93985 31.0619 2.03875 30.9393 2.15924L30.9329 3.06147L29.808 3.2229L29.5642 1.60959C29.8521 1.35015 30.1849 1.13159 30.5627 0.953904C30.9445 0.775642 31.3773 0.651794 31.8611 0.582358C32.6917 0.463161 33.373 0.565005 33.9049 0.887889C34.4408 1.21019 34.7605 1.73226 34.8641 2.4541L35.278 5.33942C35.2908 5.42814 35.3032 5.51484 35.3153 5.59952C35.331 5.67959 35.3489 5.76139 35.3691 5.84492L36.0465 5.83413L36.1801 6.76566L34.1904 7.05121C34.1298 6.91586 34.0718 6.78425 34.0164 6.65638C33.9651 6.52793 33.9218 6.39833 33.8866 6.26757C33.7082 6.57303 33.4765 6.83676 33.1915 7.05874C32.9059 7.2767 32.5716 7.41316 32.1886 7.46813ZM32.3641 6.23913C32.6745 6.19457 32.9507 6.08292 33.1925 5.90417C33.4378 5.7208 33.6113 5.5107 33.7132 5.27384L33.5561 4.17899L32.54 4.32481C32.0844 4.39019 31.755 4.54653 31.5518 4.79381C31.3521 5.03649 31.2724 5.29897 31.3129 5.58125C31.3887 6.10952 31.7391 6.32881 32.3641 6.23913Z" fill="#276F97"/>
<path d="M37.237 6.58123L37.3276 5.64453L38.3183 5.55617L38.7376 1.21936L37.7822 0.942783L37.8733 0L41.2608 0.327608L41.1696 1.27039L40.2641 1.36699L40.1194 2.86328L40.7397 2.92327L42.0462 1.41042C42.3247 1.06899 42.6007 0.817371 42.8742 0.655545C43.1476 0.493719 43.4567 0.42947 43.8013 0.462799C44.0121 0.483189 44.188 0.526799 44.3288 0.59363C44.4737 0.660853 44.6206 0.75077 44.7693 0.863382L44.4176 1.89762C44.2829 1.85185 44.1975 1.82517 44.1614 1.81758C44.1297 1.80634 44.0794 1.79738 44.0105 1.79071C43.8646 1.7766 43.7178 1.81356 43.5701 1.90161C43.4269 1.98599 43.2976 2.09626 43.1821 2.23244L42.0179 3.54417L43.5455 6.0924L44.4005 6.32857L44.3099 7.26527L42.23 7.06412L40.712 4.28966L39.9883 4.21967L39.8448 5.70379L40.715 5.97214L40.6245 6.90884L37.237 6.58123Z" fill="#276F97"/>
<path d="M43.8795 9.67254L44.1888 8.77729L45.0918 8.89536L47.3424 2.38022L46.4841 1.88966L46.7933 0.994404L49.0167 1.76268L48.8537 2.53392C49.1445 2.32838 49.4518 2.19968 49.7757 2.14781C50.1048 2.09342 50.458 2.13142 50.8353 2.26179C51.3435 2.4374 51.7307 2.72635 51.9968 3.12864C52.2629 3.53094 52.4045 4.01304 52.4216 4.57495C52.4425 5.13819 52.3379 5.75288 52.1077 6.41902L52.0658 6.54032C51.8557 7.1487 51.5752 7.64875 51.2244 8.04045C50.875 8.42829 50.4754 8.68676 50.0257 8.81584C49.576 8.94493 49.099 8.92233 48.5946 8.74805C47.894 8.50593 47.4343 8.07125 47.2157 7.44401L46.5413 9.39624L47.3708 9.87683L47.0616 10.7721L43.8795 9.67254ZM48.5428 7.47588C49.0202 7.64084 49.433 7.58737 49.7812 7.31546C50.1346 7.04103 50.411 6.61503 50.6106 6.03744L50.6525 5.91615C50.8746 5.27311 50.9374 4.71078 50.8409 4.22917C50.7496 3.74504 50.4652 3.4205 49.9878 3.25553C49.7183 3.16241 49.4622 3.14286 49.2194 3.1969C48.978 3.24709 48.7597 3.36131 48.5645 3.53955L47.5749 6.40436C47.6735 6.9298 47.9961 7.28697 48.5428 7.47588Z" fill="#276F97"/>
<path d="M57.2193 13.2859L57.7588 12.5149L58.6148 12.8902L61.1126 9.32054L60.4218 8.61324L60.9648 7.83722L63.0222 9.27728L59.8763 13.7732L60.522 14.449L59.9825 15.22L57.2193 13.2859ZM57.4395 8.04736C58.1336 8.53322 58.5615 9.07634 58.7231 9.67674C58.8846 10.2771 58.7786 10.8443 58.4049 11.3784C58.0219 11.9258 57.5143 12.2319 56.8823 12.2967C56.256 12.3605 55.5974 12.1506 54.9066 11.6671L51.6929 9.41767L52.2324 8.64666L53.1384 9.05707L55.6362 5.48738L54.9404 4.77658L55.4834 4.00056L58.3417 6.00123L57.7987 6.77725L56.8977 6.37034L56.2881 7.24148L57.4395 8.04736ZM54.4349 9.88996L55.5862 10.6958C55.91 10.9224 56.2051 11.0122 56.4717 10.9651C56.7384 10.918 56.9581 10.7709 57.1309 10.524C57.3037 10.277 57.3701 10.0151 57.33 9.73846C57.29 9.46179 57.1081 9.21017 56.7844 8.98359L55.633 8.17771L54.4349 9.88996Z" fill="#276F97"/>
<path d="M60.9637 16.6344L61.6911 16.0374L62.4491 16.6721L65.7788 13.9391L64.9997 12.9896L64.2125 13.533L63.4373 12.5882L65.0856 11.2352L69.2912 16.3605L67.6429 17.7134L66.8638 16.764L67.5502 16.0978L66.7556 15.1294L63.4259 17.8625L63.8966 18.7252L63.1693 19.3222L60.9637 16.6344Z" fill="#276F97"/>
<path d="M70.2516 22.5395C70.6303 23.2975 70.7476 23.979 70.6035 24.5838C70.4595 25.1886 70.0959 25.6367 69.513 25.9281C68.9154 26.2267 68.3234 26.2539 67.7368 26.0096C67.1558 25.7672 66.6768 25.2688 66.2999 24.5144L64.5466 21.005L65.3883 20.5843L65.9892 21.377L69.8862 19.4295L69.6132 18.4729L70.4603 18.0495L72.0198 21.1708L71.1726 21.5942L70.5744 20.807L69.6234 21.2823L70.2516 22.5395ZM67.3603 23.9845C67.5369 24.338 67.7536 24.5576 68.0104 24.6433C68.2709 24.7271 68.5341 24.7026 68.8001 24.5697C69.0698 24.4349 69.2529 24.2364 69.3495 23.9741C69.4461 23.7117 69.4061 23.4038 69.2295 23.0503L68.6013 21.7931L66.7321 22.7272L67.3603 23.9845Z" fill="#276F97"/>
<path d="M71.5267 29.4058L72.6944 29.1692L73.34 32.3554L72.1723 32.5921L71.5267 29.4058Z" fill="#276F97"/>
</svg>
