<svg width="76" height="76" viewBox="0 0 76 76" fill="none" xmlns="http://www.w3.org/2000/svg">
<path d="M68.9903 37.6879L69.9879 37.8463L70.0173 38.9111L74.6365 39.6445L74.9958 38.6414L76 38.8008L75.5102 41.8702L70.1652 43.0623L70.159 43.101L74.8667 45.9024L74.3779 48.9653L73.3737 48.8058L73.3423 47.754L68.7231 47.0206L68.3658 48.0107L67.3681 47.8523L67.9281 44.3436L68.9258 44.502L68.983 45.3923L72.2546 45.9117L72.2738 45.875L68.091 43.3226L68.2674 42.2177L73.0304 41.0922L73.0301 41.0524L69.7585 40.533L69.4269 41.3616L68.4293 41.2032L68.9903 37.6879Z" fill="#276F97"/>
<path d="M65.6626 50.6867C65.9479 50.0782 66.3299 49.6135 66.8087 49.2927C67.2914 48.9737 67.8307 48.8015 68.4268 48.7761C69.021 48.7547 69.6271 48.8881 70.2452 49.1764L70.4947 49.2928C71.1207 49.5847 71.6208 49.9649 71.9951 50.4332C72.3714 50.9073 72.5992 51.4204 72.6783 51.9725C72.7595 52.5305 72.6713 53.0841 72.4138 53.6333C72.0081 54.4987 71.4422 55.0365 70.716 55.2468C69.9879 55.461 69.1742 55.3583 68.2749 54.9389L67.4192 54.5398L69.2644 50.6042L69.2402 50.5785C68.722 50.3657 68.2355 50.3169 67.7807 50.4323C67.3299 50.5494 66.9878 50.857 66.7543 51.3548C66.5913 51.7026 66.4907 52.0409 66.4524 52.3697C66.4141 52.6985 66.4246 53.0261 66.4841 53.3524L65.3284 53.3768C65.2291 53.0223 65.1978 52.6152 65.2347 52.1557C65.2736 51.7019 65.4163 51.2123 65.6626 50.6867ZM70.3051 51.1185L69.1407 53.6019L69.2952 53.674C69.7152 53.8699 70.1022 53.93 70.4563 53.8544C70.8085 53.7827 71.0819 53.5394 71.2764 53.1245C71.4469 52.761 71.4383 52.3982 71.2507 52.0363C71.0613 51.6782 70.7588 51.371 70.3431 51.1145L70.3051 51.1185Z" fill="#276F97"/>
<path d="M64.3372 54.1291L65.1181 54.7684L64.6085 55.6971L68.2241 58.6567L69.038 57.9771L69.824 58.6205L67.5267 61.4124L66.7407 60.769L67.1754 59.9313L65.8316 58.8313L64.1336 60.8949L65.4774 61.9949L66.2163 61.4063L67.0023 62.0497L64.7051 64.8417L63.9191 64.1983L64.4287 63.2695L60.8131 60.3099L59.9992 60.9896L59.2183 60.3503L61.5156 57.5584L62.2965 58.1976L61.8618 59.0353L63.1448 60.0855L64.8427 58.0219L63.5598 56.9717L62.8209 57.5603L62.0399 56.9211L64.3372 54.1291Z" fill="#276F97"/>
<path d="M53.1547 64.5186C53.9443 64.0093 54.734 63.8377 55.5238 64.0036C56.3099 64.1718 56.9944 64.6212 57.5774 65.3517L58.6571 64.6553L57.7024 63.1828L56.7693 63.5509L56.2207 62.7047L59.2615 60.7435L59.8101 61.5897L59.0907 62.2875L61.6304 66.2051L62.6132 65.805L63.1653 66.6566L60.9012 68.1169L59.3517 65.7268L58.261 66.4302C58.6499 67.2391 58.7559 68.0252 58.579 68.7886C58.4008 69.5581 57.9298 70.1892 57.1659 70.6818C56.5967 71.049 56.0221 71.2351 55.4422 71.2403C54.8646 71.2492 54.3172 71.0958 53.8001 70.78C53.2816 70.4703 52.8312 70.0205 52.4488 69.4308L52.374 69.3154C51.9893 68.722 51.7606 68.1241 51.6877 67.5217C51.6136 66.9254 51.6991 66.3664 51.9442 65.8447C52.1856 65.3254 52.5891 64.8833 53.1547 64.5186ZM53.8457 65.5845C53.3903 65.8782 53.1682 66.2786 53.1792 66.7858C53.1927 67.2965 53.387 67.8413 53.7622 68.4201L53.837 68.5355C54.2051 69.1032 54.6217 69.4968 55.0869 69.7163C55.5508 69.9418 56.0122 69.9065 56.4713 69.6104C56.934 69.3119 57.1575 68.9055 57.1417 68.3911C57.1245 67.8826 56.9319 67.3445 56.5639 66.7768L56.4891 66.6614C56.1115 66.079 55.695 65.6775 55.2395 65.457C54.7804 65.2388 54.3158 65.2813 53.8457 65.5845Z" fill="#276F97"/>
<path d="M45.3217 71.4193L45.5228 72.6794L42.0762 73.2266L41.8751 71.9665L45.3217 71.4193Z" fill="#276F97"/>
<path d="M35.303 69.1264L35.061 70.1047L33.9948 70.0445L32.8746 74.574L33.8465 75.0153L33.603 76L30.5776 75.2556L29.8351 69.8433L29.7969 69.8339L26.6033 74.2778L23.5843 73.535L23.8278 72.5503L24.8813 72.6073L26.0015 68.0778L25.0423 67.6397L25.2843 66.6613L28.7427 67.5123L28.5008 68.4906L27.6066 68.4727L26.8131 71.6809L26.8482 71.703L29.7491 67.7599L30.8382 68.0278L31.5629 72.8563L31.6027 72.8593L32.3962 69.6512L31.5962 69.2522L31.8381 68.2739L35.303 69.1264Z" fill="#276F97"/>
<path d="M22.6781 64.7487C23.2629 65.0819 23.6962 65.4994 23.9779 66.0014C24.2574 66.5072 24.3856 67.0574 24.3624 67.6521C24.3355 68.2445 24.1529 68.8362 23.8146 69.4272L23.6779 69.6658C23.3353 70.2643 22.9147 70.7305 22.4163 71.0645C21.9119 71.4001 21.3807 71.5848 20.8225 71.6185C20.2584 71.6538 19.7123 71.5212 19.1844 71.2205C18.3527 70.7468 17.8614 70.1404 17.7103 69.4014C17.5555 68.6602 17.7243 67.8596 18.2166 66.9998L18.685 66.1815L22.4676 68.336L22.4953 68.3141C22.7501 67.8162 22.8383 67.3365 22.7601 66.8751C22.6797 66.4173 22.4002 66.0522 21.9217 65.7797C21.5875 65.5893 21.2576 65.4617 20.9321 65.3969C20.6066 65.3321 20.2785 65.3159 19.9476 65.3485L20.0172 64.1977C20.3795 64.1277 20.7888 64.1298 21.245 64.2038C21.6953 64.2794 22.173 64.4611 22.6781 64.7487ZM21.869 69.3287L19.4821 67.9692L19.3975 68.1169C19.1676 68.5185 19.0761 68.8983 19.1228 69.2565C19.1658 69.6125 19.3867 69.904 19.7854 70.1312C20.1348 70.3302 20.498 70.3512 20.875 70.1942C21.2481 70.035 21.5798 69.7592 21.8698 69.3669L21.869 69.3287Z" fill="#276F97"/>
<path d="M19.3703 63.1488L18.6691 63.8741L17.7816 63.2933L14.5349 66.6515L15.1491 67.515L14.4433 68.245L11.8367 65.7379L12.5425 65.0078L13.3449 65.5069L14.5516 64.2588L12.625 62.4057L11.4183 63.6539L11.9475 64.4356L11.2417 65.1656L8.63503 62.6585L9.34085 61.9284L10.2283 62.5093L13.475 59.1511L12.8608 58.2876L13.5621 57.5623L16.1687 60.0694L15.4674 60.7947L14.665 60.2956L13.5129 61.4873L15.4396 63.3404L16.5917 62.1487L16.0624 61.367L16.7637 60.6417L19.3703 63.1488Z" fill="#276F97"/>
<path d="M9.90409 51.1839C10.346 52.0117 10.4507 52.8111 10.2182 53.582C9.98361 54.3491 9.47679 54.9914 8.69774 55.5089L9.30208 56.6409L10.8539 55.8167L10.5651 54.8581L11.4568 54.3845L13.1588 57.5725L12.2671 58.0461L11.6309 57.2721L7.50242 59.4649L7.81897 60.4754L6.92148 60.9521L5.65421 58.5784L8.17298 57.2406L7.56247 56.0971C6.72154 56.4153 5.92724 56.4541 5.17954 56.2138C4.42593 55.9716 3.83534 55.45 3.40778 54.6492C3.08916 54.0524 2.95178 53.4656 2.99563 52.8888C3.03561 52.3141 3.2352 51.7831 3.59439 51.2958C3.94766 50.8067 4.43504 50.3971 5.05653 50.067L5.17812 50.0024C5.80347 49.6702 6.4201 49.4934 7.02802 49.472C7.63002 49.4488 8.18124 49.581 8.68167 49.8687C9.18006 50.1526 9.58753 50.591 9.90409 51.1839ZM8.78078 51.7806C8.52589 51.3031 8.14466 51.0485 7.63712 51.0166C7.12571 50.9868 6.56505 51.1338 5.95514 51.4578L5.83354 51.5223C5.23521 51.8401 4.80676 52.2209 4.54819 52.6647C4.28371 53.1066 4.27994 53.5682 4.53688 54.0495C4.79589 54.5346 5.18303 54.7911 5.6983 54.8189C6.20765 54.8448 6.76149 54.6989 7.35982 54.3811L7.48142 54.3166C8.09518 53.9906 8.53148 53.6106 8.7903 53.1766C9.04707 52.7387 9.04389 52.2734 8.78078 51.7806Z" fill="#276F97"/>
<path d="M3.67046 42.9033L2.39505 43.0016L2.12608 39.531L3.40149 39.4327L3.67046 42.9033Z" fill="#276F97"/>
<path d="M6.72614 33.1895L5.76881 32.8677L5.9176 31.8129L1.48531 30.3227L0.963541 31.252L0 30.9281L0.995349 27.9829L6.46468 27.6951L6.47725 27.6579L2.30292 24.1139L3.29618 21.1749L4.25972 21.4989L4.11513 22.5412L8.54742 24.0315L9.06499 23.1145L10.0223 23.4364L8.88447 26.8032L7.92715 26.4813L8.01936 25.5939L4.88008 24.5385L4.85507 24.5715L8.55339 27.7828L8.19506 28.8431L3.31064 29.1618L3.30428 29.2011L6.44356 30.2566L6.90875 29.4947L7.86608 29.8165L6.72614 33.1895Z" fill="#276F97"/>
<path d="M12.1721 20.9036C11.79 21.4568 11.3363 21.8522 10.811 22.0898C10.2822 22.3249 9.72169 22.4059 9.1296 22.3327C8.54 22.256 7.9643 22.0245 7.40249 21.6385L7.1756 21.4825C6.60659 21.0915 6.17629 20.6342 5.88468 20.1107C5.59196 19.5811 5.4523 19.0375 5.46571 18.4799C5.47799 17.9163 5.65659 17.3848 6.00149 16.8855C6.54489 16.0988 7.19212 15.6616 7.94316 15.5739C8.69668 15.4825 9.4822 15.7177 10.2997 16.2796L11.0776 16.8141L8.6062 20.3918L8.62577 20.4211C9.10163 20.7164 9.57338 20.8446 10.041 20.8057C10.5051 20.7644 10.8934 20.5175 11.206 20.0649C11.4244 19.7488 11.5797 19.4317 11.6719 19.1137C11.7641 18.7957 11.8079 18.4708 11.8033 18.1392L12.9471 18.3055C12.9864 18.6715 12.9498 19.0781 12.8374 19.5253C12.7239 19.9664 12.5022 20.4259 12.1721 20.9036ZM7.66494 19.7132L9.22444 17.4556L9.08399 17.359C8.70225 17.0967 8.3305 16.9737 7.96875 16.9899C7.60948 17.0026 7.29957 17.1975 7.03903 17.5747C6.81075 17.9051 6.75915 18.2643 6.88421 18.6522C7.01175 19.0365 7.25927 19.3894 7.62676 19.7108L7.66494 19.7132Z" fill="#276F97"/>
<path d="M13.9909 17.7734L13.3248 17.0158L13.9792 16.1823L10.8951 12.6748L9.9812 13.2132L9.31074 12.4507L12.0332 10.0692L12.7037 10.8317L12.138 11.5876L13.2843 12.8912L15.2965 11.131L14.1503 9.82735L13.3251 10.2881L12.6546 9.52561L15.3771 7.14408L16.0475 7.90657L15.3931 8.74013L18.4772 12.2476L19.3912 11.7092L20.0573 12.4667L17.3348 14.8483L16.6687 14.0907L17.2343 13.3348L16.14 12.0902L14.1277 13.8505L15.2221 15.095L16.0473 14.6343L16.7134 15.3919L13.9909 17.7734Z" fill="#276F97"/>
<path d="M26.6896 9.33813C25.8263 9.70992 25.019 9.74876 24.2677 9.45467C23.5203 9.15886 22.9199 8.60261 22.4663 7.78592L21.2859 8.2943L21.9828 9.9042L22.9642 9.69534L23.3647 10.6204L20.0402 12.0522L19.6397 11.1271L20.4651 10.5578L18.6109 6.2748L17.5753 6.507L17.1722 5.57591L19.6475 4.50985L20.7787 7.12292L21.9712 6.60935C21.7219 5.74743 21.7479 4.95464 22.0492 4.23098C22.3527 3.50159 22.922 2.95705 23.7571 2.59738C24.3795 2.32935 24.977 2.24067 25.5498 2.33133C26.1209 2.41799 26.6352 2.65974 27.0928 3.05658C27.5527 3.44768 27.9222 3.96561 28.2013 4.61037L28.2559 4.73652C28.5368 5.38528 28.6631 6.0127 28.6349 6.61877C28.609 7.21911 28.4319 7.75628 28.1035 8.23028C27.7792 8.70255 27.3079 9.07184 26.6896 9.33813ZM26.1851 8.17276C26.6829 7.95834 26.9685 7.60015 27.0418 7.09821C27.1133 6.59225 27.0122 6.0229 26.7382 5.39016L26.6836 5.26401C26.4149 4.64328 26.0694 4.18628 25.6471 3.89302C25.2271 3.59403 24.7661 3.55261 24.2642 3.76876C23.7583 3.98664 23.4705 4.35056 23.4007 4.86052C23.3331 5.36474 23.4337 5.92722 23.7024 6.54795L23.7571 6.6741C24.0327 7.31085 24.3768 7.77558 24.7893 8.06829C25.2059 8.35928 25.6711 8.3941 26.1851 8.17276Z" fill="#276F97"/>
<path d="M32.9187 4.04195L32.83 2.76911L36.3115 2.52758L36.4003 3.80042L32.9187 4.04195Z" fill="#276F97"/>
<path d="M40.3181 6.84708L40.575 5.87254L41.6401 5.94885L42.8292 1.43686L41.8641 0.980867L42.1226 0L45.1363 0.790136L45.7962 6.21314L45.8343 6.22312L49.0953 1.82812L52.1026 2.6166L51.8441 3.59746L50.7916 3.52449L49.6025 8.03647L50.5549 8.48914L50.2981 9.46368L46.853 8.56043L47.1098 7.58589L48.0037 7.61728L48.8459 4.42156L48.8112 4.39892L45.8506 8.2976L44.7656 8.01316L44.1145 3.1743L44.0748 3.17065L43.2326 6.36637L44.0264 6.77746L43.7696 7.752L40.3181 6.84708Z" fill="#276F97"/>
<path d="M52.9197 11.3716C52.3398 11.0299 51.9127 10.6061 51.6385 10.1C51.3665 9.5901 51.2464 9.03806 51.2784 8.44385C51.3141 7.85185 51.5054 7.2629 51.8524 6.67701L51.9926 6.4404C52.344 5.84699 52.7714 5.38698 53.2747 5.06037C53.784 4.73221 54.3179 4.55539 54.8765 4.52988C55.4411 4.50284 55.9851 4.64352 56.5085 4.95191C57.3331 5.4378 57.8155 6.05133 57.9556 6.7925C58.0994 7.53589 57.9189 8.33386 57.414 9.18641L56.9335 9.99765L53.1831 7.78786L53.1551 7.80937C52.893 8.30341 52.7977 8.78173 52.8691 9.24433C52.9427 9.70317 53.2168 10.0724 53.6912 10.3519C54.0226 10.5472 54.3505 10.6796 54.675 10.7492C54.9995 10.8188 55.3274 10.8397 55.6587 10.8121L55.5721 11.9617C55.2088 12.0263 54.7996 12.0183 54.3445 11.9376C53.8954 11.8553 53.4205 11.6667 52.9197 11.3716ZM53.7963 6.80403L56.1629 8.19845L56.2496 8.05198C56.4854 7.65388 56.5826 7.27542 56.5411 6.91661C56.5034 6.56001 56.2869 6.26524 55.8915 6.03228C55.5451 5.82816 55.1823 5.80183 54.803 5.95329C54.4276 6.10697 54.0919 6.37783 53.796 6.76587L53.7963 6.80403Z" fill="#276F97"/>
<path d="M56.3802 13.1091L57.0946 12.3966L57.9713 12.9934L61.2786 9.69456L60.6803 8.82011L61.3993 8.10297L63.9598 10.6569L63.2408 11.3741L62.4476 10.8605L61.2183 12.0866L63.1109 13.9743L64.3402 12.7482L63.8253 11.957L64.5443 11.2399L67.1048 13.7938L66.3858 14.511L65.5091 13.9141L62.2017 17.213L62.8001 18.0874L62.0858 18.7999L59.5252 16.246L60.2396 15.5335L61.0328 16.047L62.2064 14.8765L60.3138 12.9888L59.1402 14.1593L59.6551 14.9505L58.9408 15.663L56.3802 13.1091Z" fill="#276F97"/>
<path d="M65.6386 25.1883C65.209 24.3541 65.1162 23.5533 65.3601 22.7859C65.6061 22.0223 66.1224 21.3876 66.909 20.8816L66.3216 19.7408L64.7577 20.542L65.0322 21.5047L64.1336 21.9651L62.4791 18.7524L63.3777 18.292L64.0024 19.0753L68.1629 16.9437L67.8614 15.9286L68.7659 15.4652L69.9978 17.8573L67.4594 19.1578L68.0529 20.3102C68.8985 20.0045 69.6933 19.9774 70.4373 20.2288C71.1872 20.4821 71.77 21.0123 72.1857 21.8193C72.4954 22.4207 72.624 23.0095 72.5716 23.5856C72.5231 24.1597 72.3157 24.6877 71.9493 25.1696C71.5888 25.6535 71.0954 26.0558 70.4691 26.3767L70.3466 26.4395C69.7163 26.7624 69.0972 26.93 68.489 26.9425C67.8867 26.9568 67.3375 26.8165 66.8414 26.5214C66.3473 26.2302 65.9464 25.7858 65.6386 25.1883ZM66.7707 24.6083C67.0185 25.0895 67.3959 25.3497 67.9029 25.3891C68.4138 25.4265 68.9766 25.2877 69.5912 24.9728L69.7138 24.91C70.3167 24.6011 70.7508 24.2267 71.0159 23.7868C71.2869 23.3488 71.2976 22.8873 71.0478 22.4023C70.796 21.9134 70.4127 21.6513 69.8979 21.6159C69.389 21.5824 68.8331 21.7201 68.2301 22.029L68.1075 22.0918C67.489 22.4087 67.0471 22.7822 66.7819 23.2123C66.5186 23.6463 66.5149 24.1117 66.7707 24.6083Z" fill="#276F97"/>
<path d="M71.3547 31.1202L72.6223 30.9487L73.0915 34.398L71.8239 34.5695L71.3547 31.1202Z" fill="#276F97"/>
<ellipse cx="38.0983" cy="38" rx="5.01293" ry="5" fill="#276F97"/>
</svg>
