<svg width="64" height="64" viewBox="0 0 64 64" fill="none" xmlns="http://www.w3.org/2000/svg">
<path d="M32 63C49.1208 63 63 49.1208 63 32C63 14.8792 49.1208 1 32 1C14.8792 1 1 14.8792 1 32C1 49.1208 14.8792 63 32 63Z" stroke="url(#paint0_linear_636:830)" stroke-width="2"/>
<path d="M41.888 23.8677L41.888 23.8677L41.8853 23.8661C41.6595 23.7348 41.3777 23.7139 41.1359 23.8084L31.3244 31.2789C31.0555 31.5072 30.916 31.6369 30.8319 31.7517C30.7721 31.8333 30.75 31.8929 30.75 31.9987C30.75 32.0795 30.769 32.1438 30.8463 32.2461C30.9437 32.3751 31.0865 32.505 31.3322 32.7264L41.1334 40.1914C41.2342 40.2304 41.3408 40.25 41.4486 40.25C41.6053 40.25 41.7559 40.2098 41.8858 40.1344L41.8868 40.1338C42.1263 39.9952 42.25 39.7646 42.25 39.539V24.4629C42.25 24.235 42.1253 24.0044 41.888 23.8677Z" stroke="url(#paint1_linear_636:830)" stroke-width="1.5"/>
<path d="M29.4192 23.8677L29.4192 23.8677L29.4166 23.8661C29.1908 23.7348 28.9079 23.7139 28.6659 23.8084L18.8545 31.2789C18.5858 31.507 18.4467 31.6366 18.363 31.7511C18.3035 31.8325 18.2812 31.8923 18.2812 31.9987C18.2812 32.0795 18.3002 32.1438 18.3775 32.2461C18.475 32.3751 18.6178 32.505 18.8635 32.7264L28.6647 40.1914C28.7655 40.2304 28.8721 40.25 28.9798 40.25C29.1365 40.25 29.2872 40.2098 29.417 40.1344L29.418 40.1338C29.6576 39.9952 29.7812 39.7646 29.7812 39.539V24.4629C29.7812 24.235 29.6566 24.0044 29.4192 23.8677Z" stroke="url(#paint2_linear_636:830)" stroke-width="1.5"/>
<defs>
<linearGradient id="paint0_linear_636:830" x1="1" y1="-32.5833" x2="14.1176" y2="128.207" gradientUnits="userSpaceOnUse">
<stop stop-color="#7BC1E8"/>
<stop offset="1" stop-color="#276F97"/>
</linearGradient>
<linearGradient id="paint1_linear_636:830" x1="43" y1="13.25" x2="37.7587" y2="59.6498" gradientUnits="userSpaceOnUse">
<stop stop-color="#7BC1E8"/>
<stop offset="1" stop-color="#276F97"/>
</linearGradient>
<linearGradient id="paint2_linear_636:830" x1="30.5312" y1="13.25" x2="25.2899" y2="59.6498" gradientUnits="userSpaceOnUse">
<stop stop-color="#7BC1E8"/>
<stop offset="1" stop-color="#276F97"/>
</linearGradient>
</defs>
</svg>
