<svg width="64" height="64" viewBox="0 0 64 64" fill="none" xmlns="http://www.w3.org/2000/svg">
<path d="M32 63C49.1208 63 63 49.1208 63 32C63 14.8792 49.1208 1 32 1C14.8792 1 1 14.8792 1 32C1 49.1208 14.8792 63 32 63Z" stroke="url(#paint0_linear_636:831)" stroke-width="2"/>
<path d="M22.112 23.8677L22.112 23.8677L22.1147 23.8661C22.3405 23.7348 22.6223 23.7139 22.8641 23.8084L32.6756 31.2789C32.9445 31.5072 33.084 31.6369 33.1681 31.7517C33.2279 31.8333 33.25 31.8929 33.25 31.9987C33.25 32.0795 33.231 32.1438 33.1537 32.2461C33.0563 32.3751 32.9135 32.505 32.6678 32.7264L22.8666 40.1914C22.7658 40.2304 22.6592 40.25 22.5514 40.25C22.3947 40.25 22.2441 40.2098 22.1142 40.1344L22.1132 40.1338C21.8737 39.9952 21.75 39.7646 21.75 39.539V24.4629C21.75 24.235 21.8747 24.0044 22.112 23.8677Z" stroke="url(#paint1_linear_636:831)" stroke-width="1.5"/>
<path d="M34.5964 23.8677L34.5964 23.8677L34.5991 23.8661C34.8248 23.7348 35.1077 23.7139 35.3497 23.8084L45.1612 31.2789C45.4298 31.507 45.5689 31.6366 45.6527 31.7511C45.7122 31.8325 45.7344 31.8923 45.7344 31.9987C45.7344 32.0795 45.7154 32.1438 45.6381 32.2461C45.5406 32.3751 45.3979 32.505 45.1521 32.7264L35.351 40.1914C35.2502 40.2304 35.1436 40.25 35.0358 40.25C34.8791 40.25 34.7284 40.2098 34.5986 40.1344L34.5976 40.1338C34.358 39.9952 34.2344 39.7646 34.2344 39.539V24.4629C34.2344 24.235 34.359 24.0044 34.5964 23.8677Z" stroke="url(#paint2_linear_636:831)" stroke-width="1.5"/>
<defs>
<linearGradient id="paint0_linear_636:831" x1="1" y1="-32.5833" x2="14.1176" y2="128.207" gradientUnits="userSpaceOnUse">
<stop stop-color="#7BC1E8"/>
<stop offset="1" stop-color="#276F97"/>
</linearGradient>
<linearGradient id="paint1_linear_636:831" x1="21" y1="13.25" x2="26.2413" y2="59.6498" gradientUnits="userSpaceOnUse">
<stop stop-color="#7BC1E8"/>
<stop offset="1" stop-color="#276F97"/>
</linearGradient>
<linearGradient id="paint2_linear_636:831" x1="33.4844" y1="13.25" x2="38.7257" y2="59.6498" gradientUnits="userSpaceOnUse">
<stop stop-color="#7BC1E8"/>
<stop offset="1" stop-color="#276F97"/>
</linearGradient>
</defs>
</svg>
