<svg width="19" height="22" viewBox="0 0 19 22" fill="none" xmlns="http://www.w3.org/2000/svg">
<path d="M4.09091 14.0769C5.79797 14.0769 7.18182 12.6993 7.18182 11C7.18182 9.30067 5.79797 7.92308 4.09091 7.92308C2.38385 7.92308 1 9.30067 1 11C1 12.6993 2.38385 14.0769 4.09091 14.0769Z" stroke="#69AFD6" stroke-width="2" stroke-linecap="round" stroke-linejoin="round"/>
<path d="M14.9093 21C16.6163 21 18.0002 19.6225 18.0002 17.9231C18.0002 16.2238 16.6163 14.8462 14.9093 14.8462C13.2022 14.8462 11.8184 16.2238 11.8184 17.9231C11.8184 19.6225 13.2022 21 14.9093 21Z" stroke="#69AFD6" stroke-width="2" stroke-linecap="round" stroke-linejoin="round"/>
<path d="M14.9093 7.15385C16.6163 7.15385 18.0002 5.77626 18.0002 4.07692C18.0002 2.37759 16.6163 1 14.9093 1C13.2022 1 11.8184 2.37759 11.8184 4.07692C11.8184 5.77626 13.2022 7.15385 14.9093 7.15385Z" stroke="#69AFD6" stroke-width="2" stroke-linecap="round" stroke-linejoin="round"/>
<path d="M12.3102 5.74072L6.69141 9.33647" stroke="#69AFD6" stroke-width="2" stroke-linecap="round" stroke-linejoin="round"/>
<path d="M6.69141 12.6638L12.3102 16.2596" stroke="#69AFD6" stroke-width="2" stroke-linecap="round" stroke-linejoin="round"/>
</svg>
