<svg id="Слой_1" data-name="Слой 1" xmlns="http://www.w3.org/2000/svg" viewBox="0 0 938.77 381.98"><defs><style>.cls-1,.cls-2{fill:#000;}.cls-1{stroke:#000;stroke-miterlimit:10;stroke-width:6px;}</style></defs><title>logo_en</title><path class="cls-1" d="M220,248.24a1.07,1.07,0,0,1,.71.27L360.67,372.94a1.09,1.09,0,0,1,.29,1.19,1.07,1.07,0,0,1-1,.69H80.12a1.07,1.07,0,0,1-1-.69,1.09,1.09,0,0,1,.29-1.19L219.32,248.51A1.09,1.09,0,0,1,220,248.24ZM357.13,372.67,220,250.76,83,372.67Z" transform="translate(-75.06 -245.24)"/><path class="cls-1" d="M360,372.67a1,1,0,0,1,.44.1,1.07,1.07,0,0,1,.64,1V622.61a1.07,1.07,0,0,1-.64,1,1.06,1.06,0,0,1-1.15-.18L219.32,499a1.07,1.07,0,0,1,0-1.6L359.24,372.94A1.12,1.12,0,0,1,360,372.67Zm-1.07,247.54V376.14l-137.23,122Z" transform="translate(-75.06 -245.24)"/><path class="cls-1" d="M80.12,372.67a1.1,1.1,0,0,1,.71.27L220.75,497.38a1.07,1.07,0,0,1,0,1.6L80.83,623.41a1.05,1.05,0,0,1-1.15.18,1.07,1.07,0,0,1-.64-1V373.75a1.07,1.07,0,0,1,.64-1A1,1,0,0,1,80.12,372.67Zm138.3,125.51-137.23-122V620.21Z" transform="translate(-75.06 -245.24)"/><path class="cls-1" d="M266.24,288.84a1.09,1.09,0,0,1,.93.53,1.08,1.08,0,0,1,0,1.07L221,372.91,360.89,622.08,359,623.14l-139.21-248-138.75,248-1.88-1,139.4-249.17-46.07-82.08a1.05,1.05,0,0,1,0-1.07,1.09,1.09,0,0,1,.92-.54l92.8-.38Zm-46.43,81.87L264.4,291l-89.12.37Z" transform="translate(-75.06 -245.24)"/><path class="cls-2" d="M433.93,589.91c1.76,4,6.46,8.66,11.3,11l-6.17,12.92c-8.8-4.11-15.41-11.16-18.49-18.35Zm64.43-.88c0,16-12.77,29.8-36.4,29.8a53.94,53.94,0,0,1-7-.44l6.6-13.8c12.33.15,22-5.87,22-15.12s-9.25-12.77-26.72-17.76c-20.54-5.87-34.05-12.18-33.46-29.94.44-16.73,14.09-28.18,35.37-28.18a45.56,45.56,0,0,1,13.07,1.76L463.87,528c-1.32-.14-3.23-.29-4.7-.29-15.11,0-20.84,7.34-20.84,14.53,0,7.93,7.19,11.45,23.49,16C482.66,564.08,498.36,570.54,498.36,589Z" transform="translate(-75.06 -245.24)"/><path class="cls-2" d="M580.12,514.62v13.94H505.7V514.62Zm-44.18,33.9h13.94v68.84H535.94Z" transform="translate(-75.06 -245.24)"/><path class="cls-2" d="M663.19,617.36H647.78l-28.33-81.75-28.33,81.75H575.71l36.84-102.74H626.2Z" transform="translate(-75.06 -245.24)"/><path class="cls-2" d="M714,580.81H689.75v36.55H675.66V566.87h38.46c12.33,0,19.23-9.1,19.23-19.08s-6.9-19.23-19.23-19.23H675.66V514.62h38.46c20.84,0,33.61,14.82,33.61,33.17,0,13.5-7,25.1-19.23,30.24l22.17,39.33h-16Z" transform="translate(-75.06 -245.24)"/><path class="cls-2" d="M832.42,514.62v13.94H758V514.62Zm-44.18,33.9h13.94v68.84H788.24Z" transform="translate(-75.06 -245.24)"/><path class="cls-2" d="M859.71,531.2H845.62V514.62h14.09Zm49.76,45.21,13.65,6c-2.34,23.63-18,36-38.6,36-22.31,0-38.9-14.68-38.9-42.42V545.59h14.09v29.94c0,20.84,10.43,28.92,24.81,28.92S909.18,596.67,909.47,576.41Zm13.95-61.79v50.49l-13.95-6V514.62Z" transform="translate(-75.06 -245.24)"/><path class="cls-2" d="M1013.83,547.79c0,18.2-12.92,33-33.61,33H955.7v36.55H941.76V566.87h38.46c12.33,0,19.08-9.1,19.08-19.08s-6.61-19.23-19.08-19.23H941.76V514.62h38.46C1001.21,514.62,1013.83,529.44,1013.83,547.79Z" transform="translate(-75.06 -245.24)"/><path class="cls-2" d="M466.59,437.67v31.46H457.1V437.67l-36.4-59.54H431l31.2,51.09,31.2-51.09H503Z" transform="translate(-75.06 -245.24)"/><path class="cls-2" d="M529.32,463.87a44.07,44.07,0,0,1-17.16-16.58,48.38,48.38,0,0,1,0-47.32,44.05,44.05,0,0,1,17.16-16.57,52.66,52.66,0,0,1,48.88-.07,44.28,44.28,0,0,1,17.09,16.58,48.22,48.22,0,0,1,0,47.45,44.25,44.25,0,0,1-17.09,16.57,52.7,52.7,0,0,1-48.88-.06Zm44-7.41A35.26,35.26,0,0,0,587,442.94a40.19,40.19,0,0,0,0-38.61,35.19,35.19,0,0,0-13.65-13.52,41.52,41.52,0,0,0-39.06,0,35.53,35.53,0,0,0-13.78,13.52,39.7,39.7,0,0,0,0,38.61,35.6,35.6,0,0,0,13.78,13.52,41.6,41.6,0,0,0,39.06,0Z" transform="translate(-75.06 -245.24)"/><path class="cls-2" d="M632.21,459.77q-9.88-10.14-9.88-29.51V378.13H632v51.74q0,15.87,7.15,23.66t20.67,7.8q13.65,0,20.8-7.8t7.15-23.66V378.13h9.36v52.13q0,19.38-9.82,29.51t-27.49,10.14Q642.09,469.91,632.21,459.77Z" transform="translate(-75.06 -245.24)"/><path class="cls-2" d="M788.21,469.13l-20.8-29.25a66,66,0,0,1-7.28.39H735.69v28.86h-9.62v-91h34.06q17.42,0,27.3,8.32t9.88,22.88q0,10.67-5.4,18t-15.4,10.59l22.23,31.2Zm-7.67-43q7.14-6,7.15-16.77,0-11-7.15-17t-20.67-5.92H735.69v45.63h24.18Q773.39,432.08,780.54,426.1Z" transform="translate(-75.06 -245.24)"/></svg>
