<svg width="24" height="24" viewBox="0 0 24 24" fill="none" xmlns="http://www.w3.org/2000/svg">
<g clip-path="url(#clip0)">
<path d="M21.3627 14.3768L21.3497 14.3647C21.1448 14.1752 20.5171 13.5632 20.3054 13.2957C20.057 12.962 20.1143 12.7433 20.3005 12.4156C20.5358 12.0015 21.0073 11.3664 21.5062 10.6938C23.1044 8.54031 24.1362 7.04948 23.9238 5.99053L23.8093 5.42491L17.9073 5.42748C17.8866 5.48325 17.5786 6.83886 16.2789 9.1472C15.3365 10.8209 14.7183 11.3468 14.5006 11.4396L14.4669 11.4293C14.3961 11.3416 14.2723 11.1049 14.2214 10.4949C14.1683 9.85593 14.2153 9.08226 14.2609 8.33409C14.3142 7.45677 14.3602 6.69906 14.2501 6.15693L14.0709 5.27373C13.8542 5.23906 13.0612 4.93249 10.8517 4.90919C8.93877 4.88956 8.37682 5.16641 8.10088 5.41041L7.18809 6.21747L8.34184 6.60641C8.78093 6.75447 8.92668 6.92527 9.04625 7.77196C9.12426 8.32382 9.16509 9.25123 9.08086 10.0792C8.95983 11.2664 8.6696 11.4873 8.65459 11.499C8.6046 11.482 8.18071 11.2961 7.44481 9.73722C6.93431 8.65607 6.4868 7.37715 6.15977 6.44331C5.7855 5.3739 5.85289 5.60158 5.66301 5.09632L-0.0469666 5.09614L0.322541 6.05382C1.86301 10.0502 3.2764 13.1711 5.16789 15.4127C7.25767 17.8893 9.85485 19.186 13.3533 19.186H14.0564V18.4815C14.0564 17.8228 14.1108 17.3486 14.2274 16.989C14.2986 16.7699 14.3933 16.5889 14.4927 16.399C14.6403 16.1194 14.7846 15.9996 14.8633 15.9818C14.9348 15.9655 15.0604 16.0179 15.1995 16.1219C15.5991 16.4204 15.9162 16.8127 16.252 17.2281C16.7365 17.8274 17.2375 18.447 18.0324 18.8526C18.4667 19.0742 19.2628 19.1862 19.701 19.1862C19.8169 19.1862 23.948 19.186 23.9531 19.186L23.9229 18.4525C23.8778 17.3557 23.0163 15.9844 21.3627 14.3768ZM19.7283 17.777H19.7169C19.4148 17.7819 18.8382 17.6827 18.6705 17.5972C18.142 17.3275 17.7727 16.8705 17.3448 16.3414C16.9692 15.8767 16.5809 15.3962 16.0402 14.9924C15.6029 14.6656 15.2057 14.57 14.8904 14.57C14.7645 14.57 14.6513 14.5853 14.5543 14.6073C14.1882 14.6898 13.6647 14.9537 13.2485 15.7424C13.1312 15.9667 12.998 16.2208 12.8902 16.5533C12.7772 16.9011 12.7069 17.2877 12.6734 17.7579C10.037 17.6078 7.97984 16.5628 6.2418 14.5031C4.62589 12.5879 3.35459 9.90913 2.00821 6.50459C2.10563 6.50459 4.54661 6.50496 4.69071 6.50496C4.73484 6.62916 4.78245 6.76529 4.83299 6.9095C5.18547 7.9169 5.66832 9.29636 6.23723 10.4727C7.05186 12.1573 7.79582 12.9086 8.64928 12.9086C9.07537 12.9086 9.45751 12.7277 9.75432 12.3852C10.1775 11.897 10.4232 11.0912 10.5056 9.92161C10.5706 8.99933 10.5102 8.08073 10.4388 7.57455C10.3798 7.15809 10.2958 6.7209 10.0907 6.3292C10.9647 6.28976 12.1349 6.35213 12.8763 6.45873C12.9437 6.82639 12.8997 7.54905 12.8572 8.24823C12.7545 9.9372 12.6485 11.6801 13.5408 12.4956C13.6977 12.6391 13.8641 12.7159 13.8689 12.7191L14.323 12.8587C14.4982 12.8046 15.5132 13.3205 17.4351 9.95995C18.0508 8.8832 18.6242 7.64243 18.9329 6.83207C19.6488 6.83061 22.088 6.83336 22.3745 6.83373C21.9686 7.72885 21.0065 9.00557 20.3778 9.85299C19.8295 10.5916 19.3562 11.2295 19.0784 11.7183C18.5624 12.6262 18.6492 13.4355 19.1867 14.1493L19.1951 14.1604C19.495 14.5429 20.2357 15.251 20.3893 15.3938C21.5022 16.4764 22.0385 17.2541 22.2938 17.7768H19.7283V17.777Z" fill="#525252"/>
</g>
<defs>
<clipPath id="clip0">
<rect width="24" height="24" fill="white"/>
</clipPath>
</defs>
</svg>
