<svg width="23" height="15" viewBox="0 0 23 15" fill="none" xmlns="http://www.w3.org/2000/svg">
<path d="M21.978 11.0794C21.4777 10.4799 20.9125 9.94453 20.3659 9.4268C20.1738 9.24482 19.975 9.05664 19.7837 8.86981C19.7836 8.86977 19.7836 8.86972 19.7835 8.86968C19.5261 8.61861 19.4001 8.4404 19.387 8.30878C19.374 8.17941 19.4624 7.98745 19.6658 7.70373C19.9699 7.27697 20.294 6.84949 20.6075 6.43612C20.8862 6.06865 21.1744 5.68866 21.4505 5.30651L21.5125 5.22071C22.0514 4.47491 22.6085 3.70373 22.907 2.76396C22.9923 2.49452 23.0808 2.09579 22.8673 1.74576C22.6536 1.39564 22.2576 1.29187 21.9784 1.24434C21.8421 1.22098 21.7127 1.21905 21.5923 1.21905L18.0971 1.21595C17.4928 1.20589 17.0736 1.49231 16.8451 2.06749C16.6623 2.52686 16.4464 3.05924 16.1962 3.56425C15.7175 4.53919 15.1093 5.66211 14.2278 6.5977L14.1886 6.63939C14.1286 6.70345 14.0305 6.8082 13.9802 6.83224C13.8847 6.77222 13.7745 6.42897 13.7795 6.24915C13.7797 6.2447 13.7797 6.2403 13.7797 6.2359L13.7766 2.19727C13.7766 2.17674 13.7752 2.15621 13.7724 2.13586C13.694 1.55969 13.5412 0.982085 12.6293 0.802127C12.6001 0.796332 12.5703 0.793457 12.5406 0.793457H8.90481C8.22078 0.793457 7.85898 1.1067 7.56892 1.44631C7.48496 1.54532 7.26188 1.8082 7.37553 2.12957C7.49053 2.45476 7.8332 2.51968 7.94568 2.54097C8.34189 2.61617 8.54678 2.84011 8.61021 3.26821C8.73559 4.10003 8.75095 4.9899 8.65864 6.06726C8.6329 6.35651 8.58501 6.57636 8.50775 6.7592C8.48636 6.80982 8.46759 6.84118 8.45447 6.85964C8.43353 6.8512 8.40097 6.83502 8.35586 6.80416C8.07744 6.61365 7.86761 6.31748 7.66469 6.03114C6.85421 4.88684 6.17248 3.62301 5.58027 2.16686C5.33639 1.57016 4.87791 1.23688 4.29015 1.22826C3.17034 1.20961 2.13466 1.21006 1.12499 1.22969C0.648776 1.23796 0.314826 1.38787 0.132263 1.67532C-0.0505245 1.96332 -0.0438311 2.33051 0.152209 2.76688C1.5536 5.88313 2.82606 8.15007 4.27794 10.1174C5.30023 11.5024 6.3293 12.4638 7.51645 13.1431C8.76376 13.8567 10.1704 14.2064 11.8024 14.2063C11.9879 14.2063 12.1768 14.2018 12.3681 14.1927C13.3749 14.1468 13.7846 13.7463 13.8293 12.7657C13.8543 12.2475 13.912 11.8276 14.1121 11.4628C14.1681 11.3607 14.2313 11.2923 14.281 11.2797C14.334 11.2665 14.4278 11.2989 14.5321 11.3667C14.7229 11.4906 14.8872 11.6586 15.0223 11.8061C15.1592 11.956 15.2976 12.1108 15.4315 12.2606C15.7164 12.5794 16.0111 12.9091 16.3198 13.2235C17.018 13.9353 17.8229 14.2617 18.7131 14.1933L21.9118 14.1948C21.9119 14.1948 21.9119 14.1948 21.912 14.1948C21.9221 14.1948 21.9323 14.1945 21.9424 14.1938C22.3114 14.1692 22.6304 13.965 22.8177 13.6333C23.0432 13.2338 23.0398 12.7279 22.8084 12.2793C22.5669 11.813 22.2536 11.4116 21.978 11.0794ZM22.0198 13.1827C21.9757 13.2609 21.9213 13.2751 21.8932 13.2785L18.6952 13.277C18.6952 13.277 18.6951 13.277 18.6949 13.277C18.6823 13.277 18.6697 13.2775 18.6572 13.2786C18.0271 13.3311 17.4916 13.1096 16.9737 12.5818C16.68 12.2825 16.3926 11.961 16.1147 11.65C15.9792 11.4985 15.8392 11.3418 15.6985 11.1878C15.524 10.9972 15.3084 10.7782 15.0312 10.5983C14.6163 10.329 14.2725 10.3371 14.0572 10.3914C13.8441 10.4451 13.5413 10.5982 13.3088 11.0225C13.0076 11.5714 12.9412 12.1635 12.9141 12.723C12.8985 13.0651 12.8407 13.1555 12.8165 13.1784C12.7848 13.2085 12.679 13.2614 12.3258 13.2776C10.6289 13.3573 9.20476 13.0534 7.97151 12.3479C6.89868 11.734 5.95928 10.8524 5.01524 9.57338C3.60357 7.66065 2.36147 5.44563 0.987982 2.39138C0.938209 2.28074 0.922845 2.21169 0.918398 2.17472C0.953437 2.16322 1.0219 2.14808 1.14193 2.14588C2.14135 2.12652 3.16621 2.12598 4.27591 2.14449C4.42784 2.14673 4.60083 2.19233 4.73183 2.51285C5.35058 4.03431 6.06534 5.35839 6.91706 6.56086C7.1432 6.88003 7.42468 7.27733 7.83836 7.56038C8.21728 7.81985 8.52477 7.80745 8.71605 7.75139C8.90742 7.69528 9.173 7.5394 9.35188 7.11588C9.46728 6.84289 9.53704 6.53548 9.57159 6.14709C9.67028 4.9947 9.65276 4.0366 9.51656 3.13291C9.42056 2.48545 9.08625 2.01772 8.55963 1.77887C8.65316 1.73017 8.75854 1.70987 8.9049 1.70987H12.4931C12.695 1.75515 12.735 1.80834 12.7487 1.82653C12.8068 1.90384 12.8401 2.08672 12.8604 2.22961L12.8634 6.231C12.8553 6.61459 13.0418 7.46532 13.6765 7.6986C13.6817 7.70054 13.687 7.70233 13.6922 7.70404C14.2701 7.89289 14.6524 7.48496 14.8576 7.26578L14.8941 7.22688C15.8598 6.20198 16.51 5.00445 17.018 3.96967C17.2828 3.43532 17.5071 2.8826 17.6967 2.40616C17.7916 2.16722 17.8779 2.12787 18.0839 2.13222C18.0867 2.13231 18.0895 2.13231 18.0924 2.13231L21.592 2.13541C21.6734 2.13541 21.7584 2.13636 21.8243 2.14763C21.991 2.17602 22.0597 2.21061 22.0824 2.22494C22.0847 2.25149 22.0842 2.32786 22.0338 2.48724C21.7799 3.28636 21.2893 3.96531 20.77 4.68416L20.7079 4.77009C20.4381 5.14348 20.1531 5.51917 19.8776 5.88254C19.56 6.30126 19.2318 6.73417 18.9205 7.17108C18.255 8.09958 18.3135 8.71573 19.144 9.52576C19.3402 9.71736 19.5414 9.90792 19.736 10.0922C20.2877 10.6148 20.8088 11.1083 21.2739 11.6656C21.5174 11.9591 21.7934 12.3117 21.9945 12.7001C22.0995 12.9035 22.0737 13.0872 22.0198 13.1827Z" fill="#696969"/>
</svg>
