<svg width="28" height="28" viewBox="0 0 28 28" fill="none" xmlns="http://www.w3.org/2000/svg">
<path d="M4.10156 24.6641H23.8984C26.1601 24.6641 28 22.8241 28 20.5625V7.4375C28 5.17587 26.1601 3.33594 23.8984 3.33594H4.10156C1.83994 3.33594 0 5.17587 0 7.4375V20.5625C0 22.8241 1.83994 24.6641 4.10156 24.6641ZM1.64062 7.4375C1.64062 6.08057 2.74463 4.97656 4.10156 4.97656H23.8984C25.2554 4.97656 26.3594 6.08057 26.3594 7.4375V20.5625C26.3594 21.9194 25.2554 23.0234 23.8984 23.0234H4.10156C2.74463 23.0234 1.64062 21.9194 1.64062 20.5625V7.4375Z" fill="white"/>
<path d="M9.89844 8.50432V19.655L19.7695 13.9882L9.89844 8.50432ZM11.5391 11.2925L16.4336 14.0117L11.5391 16.8215V11.2925Z" fill="white"/>
</svg>
